<svg width="36" height="36" viewBox="0 0 36 36" fill="none" xmlns="http://www.w3.org/2000/svg">
<path d="M17.6719 15.97V14.73" stroke="#FE671B" stroke-width="1.5" stroke-linecap="round" stroke-linejoin="round"/>
<path d="M26.58 33.75H8.75" stroke="#020038" stroke-width="1.5" stroke-linecap="round" stroke-linejoin="round"/>
<path d="M17.6719 19.5V33.75" stroke="#020038" stroke-width="1.5" stroke-linecap="round" stroke-linejoin="round"/>
<path d="M15.1297 12.8C15.1297 14 16.4397 14.7201 17.9397 14.7201C18.2247 14.734 18.5095 14.6867 18.7747 14.5814C19.04 14.4762 19.2797 14.3154 19.4777 14.1099C19.6756 13.9043 19.8273 13.6587 19.9225 13.3896C20.0178 13.1206 20.0543 12.8344 20.0297 12.55C20.0297 11.4 18.6997 10.66 17.5597 10.66H17.6297C16.9713 10.6997 16.323 10.4836 15.82 10.057C15.317 9.63038 14.9981 9.02602 14.9297 8.37C14.9297 7.14 16.2297 6.62 17.6297 6.62C19.0297 6.62 19.9297 7.41009 19.9297 8.34009" stroke="#FE671B" stroke-width="1.5" stroke-linecap="round" stroke-linejoin="round"/>
<path d="M17.6719 6.57997V5.33997" stroke="#FE671B" stroke-width="1.5" stroke-linecap="round" stroke-linejoin="round"/>
<path d="M10.1502 15.3502C9.00679 13.5338 8.55995 11.3648 8.89228 9.24445C9.22461 7.12409 10.3136 5.19588 11.9579 3.81647C13.6021 2.43705 15.6903 1.69982 17.8362 1.74115C19.982 1.78248 22.0403 2.5995 23.6302 4.0412C25.2201 5.4829 26.2341 7.45174 26.4845 9.58331C26.7349 11.7149 26.2049 13.865 24.9925 15.6359C23.78 17.4069 21.9672 18.6788 19.8894 19.2164C17.8116 19.7539 15.6094 19.5209 13.6902 18.5601" stroke="#54B7F9" stroke-width="1.5" stroke-linecap="round" stroke-linejoin="round"/>
<path d="M17.6701 26.62C16.8721 25.2347 15.6678 24.1282 14.2201 23.45C12.7122 23.0082 11.1313 22.8722 9.57011 23.05C9.53171 23.9711 9.79245 24.8799 10.3134 25.6406C10.8343 26.4012 11.5874 26.9728 12.4601 27.27C13.3085 27.6315 14.2376 27.7618 15.1528 27.6477C16.0679 27.5335 16.9365 27.1789 17.6701 26.62Z" stroke="#020038" stroke-width="1.5" stroke-linecap="round" stroke-linejoin="round"/>
<path d="M17.5195 26.62C18.3175 25.2347 19.5219 24.1282 20.9695 23.45C22.4774 23.0082 24.0584 22.8722 25.6195 23.05C25.6586 23.9699 25.3993 24.8778 24.8803 25.6383C24.3613 26.3988 23.6104 26.9711 22.7395 27.27C21.8894 27.6314 20.9588 27.7617 20.0421 27.6475C19.1253 27.5334 18.2551 27.1788 17.5195 26.62V26.62Z" stroke="#020038" stroke-width="1.5" stroke-linecap="round" stroke-linejoin="round"/>
</svg>
