<svg width="24" height="24" viewBox="0 0 24 24" fill="none" xmlns="http://www.w3.org/2000/svg">
<path d="M9.87613 12.2962C12.3879 12.2962 14.4241 10.26 14.4241 7.7482C14.4241 5.2364 12.3879 3.2002 9.87613 3.2002C7.36433 3.2002 5.32812 5.2364 5.32812 7.7482C5.32812 10.26 7.36433 12.2962 9.87613 12.2962Z" stroke="#54B7F9" stroke-width="1.5" stroke-linecap="round" stroke-linejoin="round"/>
<path d="M5.48877 13.6704C4.65017 14.332 3.97258 15.1752 3.50698 16.1365C3.04139 17.0978 2.79993 18.1523 2.80078 19.2204H13.6008" stroke="#54B7F9" stroke-width="1.5" stroke-linecap="round" stroke-linejoin="round"/>
<path d="M14 14C12.7399 14.6594 11.3776 15 10 15C8.62244 15 7.26005 14.6594 6 14" stroke="#54B7F9" stroke-width="1.5" stroke-linecap="round" stroke-linejoin="round"/>
<path d="M16.1719 16.6895C16.1719 18.2469 17.524 19.1941 19.0793 19.1941C20.6345 19.1941 21.291 17.8054 21.291 16.3122C21.251 15.6442 20.9626 15.0175 20.4855 14.5618C20.0084 14.106 19.379 13.8562 18.7276 13.8636H18.7979C18.0467 13.8366 17.335 13.5108 16.813 12.9552C16.291 12.3995 15.9995 11.6574 16 10.8853C16 9.27971 17.3521 8.61333 18.7979 8.61333C19.0996 8.5892 19.4029 8.62866 19.6892 8.72936C19.9755 8.83005 20.2388 8.98974 20.4627 9.19876C20.6867 9.40778 20.8667 9.66182 20.9917 9.94491C21.1167 10.228 21.1839 10.5343 21.1894 10.8451" stroke="#54B7F9" stroke-width="1.5" stroke-linecap="round" stroke-linejoin="round"/>
<path d="M18.7969 8.60559V7" stroke="#54B7F9" stroke-width="1.5" stroke-linecap="round" stroke-linejoin="round"/>
<path d="M18.7969 20.7996V19.186" stroke="#54B7F9" stroke-width="1.5" stroke-linecap="round" stroke-linejoin="round"/>
</svg>
