<svg width="60" height="70" viewBox="0 0 60 70" fill="none" xmlns="http://www.w3.org/2000/svg">
<g clip-path="url(#clip0_57_86800)">
<path d="M27.5485 59.5885H5.00405C2.80128 59.5885 1.02002 57.8079 1.02002 55.6059V5.00206C1.02002 2.80011 2.80128 1.01953 5.00405 1.01953H11.4764" stroke="#020038" stroke-width="1.5" stroke-miterlimit="10" stroke-linecap="round" stroke-linejoin="round"/>
<path d="M21.4976 1.01953H43.403C45.6057 1.01953 47.387 2.80011 47.387 5.00206V39.3632" stroke="#020038" stroke-width="1.5" stroke-miterlimit="10" stroke-linecap="round" stroke-linejoin="round"/>
<path d="M38.7663 11.7422H9.6543V22.0723H38.7663V11.7422Z" stroke="#FE671B" stroke-width="1.5" stroke-miterlimit="10" stroke-linecap="round" stroke-linejoin="round"/>
<path d="M9.6543 31.9297H15.0117" stroke="#020038" stroke-width="1.5" stroke-miterlimit="10" stroke-linecap="round" stroke-linejoin="round"/>
<path d="M21.5249 31.9297H26.8823" stroke="#020038" stroke-width="1.5" stroke-miterlimit="10" stroke-linecap="round" stroke-linejoin="round"/>
<path d="M33.4092 31.9297H38.753" stroke="#020038" stroke-width="1.5" stroke-miterlimit="10" stroke-linecap="round" stroke-linejoin="round"/>
<path d="M9.6543 40.3945H15.0117" stroke="#020038" stroke-width="1.5" stroke-miterlimit="10" stroke-linecap="round" stroke-linejoin="round"/>
<path d="M21.5249 40.3945H26.8823" stroke="#020038" stroke-width="1.5" stroke-miterlimit="10" stroke-linecap="round" stroke-linejoin="round"/>
<path d="M33.4092 40.3945H38.753" stroke="#020038" stroke-width="1.5" stroke-miterlimit="10" stroke-linecap="round" stroke-linejoin="round"/>
<path d="M9.6543 48.8633H15.0117" stroke="#020038" stroke-width="1.5" stroke-miterlimit="10" stroke-linecap="round" stroke-linejoin="round"/>
<path d="M21.5249 48.8633H30.1456" stroke="#020038" stroke-width="1.5" stroke-miterlimit="10" stroke-linecap="round" stroke-linejoin="round"/>
<path d="M46.0547 68.9806C53.0461 68.9806 58.7138 63.3151 58.7138 56.3262C58.7138 49.3374 53.0461 43.6719 46.0547 43.6719C39.0632 43.6719 33.3955 49.3374 33.3955 56.3262C33.3955 63.3151 39.0632 68.9806 46.0547 68.9806Z" stroke="#54B7F9" stroke-width="1.5" stroke-miterlimit="10" stroke-linecap="round" stroke-linejoin="round"/>
<path d="M42.8865 59.182C42.8865 60.7859 44.6134 61.751 46.6122 61.751C48.611 61.751 49.454 60.3374 49.454 58.8015C49.454 57.2655 47.6728 56.3005 46.1635 56.3005H46.2587C44.3006 56.3005 42.6689 54.8869 42.6689 53.2422C42.6689 51.5976 44.3958 50.918 46.2587 50.918C48.1215 50.918 49.3181 51.9646 49.3181 53.2015" stroke="#FE671B" stroke-width="1.5" stroke-miterlimit="10" stroke-linecap="round" stroke-linejoin="round"/>
<path d="M46.2588 50.9181V49.2734" stroke="#FE671B" stroke-width="1.5" stroke-miterlimit="10" stroke-linecap="round" stroke-linejoin="round"/>
<path d="M46.2588 63.3947V61.75" stroke="#FE671B" stroke-width="1.5" stroke-miterlimit="10" stroke-linecap="round" stroke-linejoin="round"/>
</g>
<defs>
<clipPath id="clip0_57_86800">
<rect width="59.7333" height="70" fill="white"/>
</clipPath>
</defs>
</svg>
