<svg width="120" height="120" viewBox="0 0 120 120" fill="none" xmlns="http://www.w3.org/2000/svg">
<path d="M83.2678 92.6361C85.2959 94.1009 86.0847 96.5797 85.2959 98.9459C84.9579 100.073 84.1692 101.087 83.1551 101.763L76.3945 106.495C69.8593 111.115 61.1833 111.566 54.1973 107.735C52.3945 106.721 50.5917 105.594 48.5635 104.354L40.2255 97.9318C38.1974 96.129 36.0565 94.1008 33.9157 91.7347C25.6903 82.6079 20.8452 72.8051 18.0283 65.1431C15.2114 57.2558 17.3523 48.467 23.3241 42.7206L28.6199 37.6501C29.2959 37.0868 30.0847 36.6361 30.9861 36.5234C32.6762 36.1854 34.479 36.9741 35.4931 38.3262L42.0283 47.3403C44.5072 50.8332 44.0565 55.5656 41.0143 58.4952L36.7326 62.7769C34.479 65.0304 33.9157 68.5234 35.4931 71.3403C37.0706 74.1572 39.5495 77.8755 43.1551 81.8192C43.6058 82.2699 44.0565 82.7206 44.5072 83.1713" stroke="#020038" stroke-width="2" stroke-miterlimit="10" stroke-linecap="round" stroke-linejoin="round"/>
<path d="M44.5073 83.2852C47.3242 86.2147 49.9158 88.2429 52.0566 89.595C54.8735 91.3978 58.4792 91.1725 60.8454 88.8063L63.0989 86.6654C66.1411 83.7359 70.7609 83.5105 74.1411 85.8767" stroke="#020038" stroke-width="2" stroke-miterlimit="10" stroke-linecap="round" stroke-linejoin="round"/>
<path d="M73.3525 91.8458C73.3525 91.8458 84.6201 90.3811 88.5638 78.5501C92.5075 66.7191 85.6342 59.5078 85.6342 59.5078" stroke="#EC7036" stroke-width="2" stroke-miterlimit="10" stroke-linecap="round" stroke-linejoin="round"/>
<path d="M93.8595 60.4089L85.2961 58.7188L83.606 67.5075" stroke="#EC7036" stroke-width="2" stroke-miterlimit="10" stroke-linecap="round" stroke-linejoin="round"/>
<path d="M72.1128 31.1143C75.4732 31.1143 78.1973 28.3902 78.1973 25.0298C78.1973 21.6694 75.4732 18.9453 72.1128 18.9453C68.7524 18.9453 66.0283 21.6694 66.0283 25.0298C66.0283 28.3902 68.7524 31.1143 72.1128 31.1143Z" stroke="#54B7F9" stroke-width="2" stroke-miterlimit="10" stroke-linecap="round" stroke-linejoin="round"/>
<path d="M65.4649 32.8047C63.6621 35.0582 63.2114 38.1005 63.2114 40.2413H72.2255H81.2396C81.2396 38.1005 80.7889 35.0582 78.9861 32.8047" stroke="#54B7F9" stroke-width="2" stroke-miterlimit="10" stroke-linecap="round" stroke-linejoin="round"/>
<path d="M72.1129 53.7609C84.8076 53.7609 95.0988 43.4697 95.0988 30.775C95.0988 18.0802 84.8076 7.78906 72.1129 7.78906C59.4181 7.78906 49.127 18.0802 49.127 30.775C49.127 43.4697 59.4181 53.7609 72.1129 53.7609Z" stroke="#020038" stroke-width="2" stroke-miterlimit="10" stroke-linecap="round" stroke-linejoin="round"/>
</svg>
