<svg width="26" height="26" viewBox="0 0 26 26" fill="none" xmlns="http://www.w3.org/2000/svg">
<g clip-path="url(#clip0_2466_141471)">
<path d="M9.43401 16.1508C9.96374 16.6638 10.5509 17.1224 11.1854 17.5188C11.4965 17.7115 11.8685 17.8002 12.2406 17.7702C12.6127 17.7402 12.9629 17.5934 13.2339 17.3537L13.7524 16.8997C14.0905 16.596 14.5323 16.413 15.0006 16.3829C15.4688 16.3527 15.9334 16.4772 16.3131 16.7345L18.4628 18.191C18.6879 18.3434 18.8547 18.559 18.9389 18.8062C19.0231 19.0534 19.0202 19.3193 18.9307 19.5649V19.5649C18.8371 19.8034 18.6671 20.0092 18.4438 20.1546L16.8821 21.1747C16.134 21.6627 15.2546 21.9462 14.343 21.9931C13.4314 22.0399 12.5239 21.8484 11.7228 21.44C11.3013 21.2356 10.865 20.9879 10.414 20.697L8.48561 19.2936C8.00508 18.8986 7.51824 18.4504 7.02507 17.9551C5.3752 16.2977 4.10198 14.3461 3.28204 12.2178C2.96359 11.3819 2.9136 10.4775 3.13822 9.6155C3.36284 8.75349 3.8523 7.97131 4.54658 7.36492L5.77318 6.27407C5.92198 6.14137 6.10852 6.05128 6.31061 6.01459V6.01459C6.50764 5.98288 6.71025 6.0031 6.89566 6.07289C7.08108 6.14268 7.24194 6.25931 7.36017 6.40968L8.86497 8.37321C9.14674 8.73446 9.27947 9.17838 9.23882 9.62349C9.19818 10.0686 8.98689 10.4851 8.64367 10.7968L7.63205 11.7225C7.37323 11.9593 7.20561 12.2692 7.1553 12.6041C7.10498 12.9389 7.17479 13.28 7.35385 13.574C7.85819 14.3906 8.45602 15.1537 9.13684 15.8501L9.44033 16.1508" stroke="#FE671B" stroke-width="1.5" stroke-linecap="round" stroke-linejoin="round"/>
<path d="M19 13C18.834 11.4656 18.1485 10.0341 17.0572 8.94279C15.9659 7.85149 14.5344 7.16603 13 7" stroke="#FE671B" stroke-width="1.5" stroke-linecap="round" stroke-linejoin="round"/>
<path d="M23 13C22.7214 10.4425 21.5781 8.05699 19.7595 6.2384C17.9409 4.41981 15.5561 3.27726 13 3" stroke="#FE671B" stroke-width="1.5" stroke-linecap="round" stroke-linejoin="round"/>
</g>
<defs>
<clipPath id="clip0_2466_141471">
<rect width="26" height="26" fill="white"/>
</clipPath>
</defs>
</svg>
