<svg width="120" height="120" viewBox="0 0 120 120" fill="none" xmlns="http://www.w3.org/2000/svg">
<path d="M69.1996 75.1H78.1996L96.5996 87.6C97.9996 88.6 99.9996 87.6 99.9996 85.8V75.1H107.1C109.2 75.1 110.9 73.4 110.9 71.3V25.8C110.9 23.7 109.2 22 107.1 22H47.8996C45.7996 22 44.0996 23.7 44.0996 25.8V37.6" stroke="#020038" stroke-width="2" stroke-miterlimit="10" stroke-linecap="round" stroke-linejoin="round"/>
<path d="M11.7 42.3008H62.1C63.6 42.3008 64.8 43.5008 64.8 45.0008V83.9008C64.8 85.4008 63.6 86.6008 62.1 86.6008H36.3L20.5 97.5008C19.5 98.2008 18 97.5008 18 96.2008V86.7008H11.7C10.2 86.7008 9 85.5008 9 84.0008V45.1008C9 43.6008 10.2 42.3008 11.7 42.3008Z" stroke="#54B7F9" stroke-width="2" stroke-miterlimit="10" stroke-linecap="round" stroke-linejoin="round"/>
<path d="M21.8999 54.5H53.4999" stroke="#EC7036" stroke-width="2" stroke-miterlimit="10" stroke-linecap="round" stroke-linejoin="round"/>
<path d="M21.8999 63.3984H53.4999" stroke="#EC7036" stroke-width="2" stroke-miterlimit="10" stroke-linecap="round" stroke-linejoin="round"/>
<path d="M21.8999 72.3984H53.4999" stroke="#EC7036" stroke-width="2" stroke-miterlimit="10" stroke-linecap="round" stroke-linejoin="round"/>
<path d="M59.2998 34.6992H96.8998" stroke="#020038" stroke-width="2" stroke-miterlimit="10" stroke-linecap="round" stroke-linejoin="round"/>
<path d="M73.3999 45.3984H96.8999" stroke="#020038" stroke-width="2" stroke-miterlimit="10" stroke-linecap="round" stroke-linejoin="round"/>
<path d="M73.3999 56.1016H96.8999" stroke="#020038" stroke-width="2" stroke-miterlimit="10" stroke-linecap="round" stroke-linejoin="round"/>
</svg>
