<svg width="21" height="26" viewBox="0 0 21 26" fill="none" xmlns="http://www.w3.org/2000/svg">
<g clip-path="url(#clip0_216_59131)">
<path d="M14.4891 18.7075C16.6162 18.7075 18.3406 16.9831 18.3406 14.8559C18.3406 12.7288 16.6162 11.0044 14.4891 11.0044C12.362 11.0044 10.6376 12.7288 10.6376 14.8559C10.6376 16.9831 12.362 18.7075 14.4891 18.7075Z" stroke="white" stroke-width="1.5" stroke-miterlimit="10" stroke-linecap="round" stroke-linejoin="round"/>
<path d="M12.1965 18.249C9.62882 19.4412 8.71179 22.7425 8.71179 24.6682H14.4891H20.2664C20.2664 22.7425 19.2576 19.3495 16.7817 18.249" stroke="white" stroke-width="1.5" stroke-miterlimit="10" stroke-linecap="round" stroke-linejoin="round"/>
<path d="M6.41923 22.1005H0.733643V0.733643H14.4891V8.06989" stroke="white" stroke-width="1.5" stroke-miterlimit="10" stroke-linecap="round" stroke-linejoin="round"/>
<path d="M4.40173 8.06982H11.1878" stroke="white" stroke-width="1.5" stroke-miterlimit="10" stroke-linecap="round" stroke-linejoin="round"/>
<path d="M4.40173 4.49341H11.1878" stroke="white" stroke-width="1.5" stroke-miterlimit="10" stroke-linecap="round" stroke-linejoin="round"/>
<path d="M4.40173 11.6462H7.79475" stroke="white" stroke-width="1.5" stroke-miterlimit="10" stroke-linecap="round" stroke-linejoin="round"/>
</g>
<defs>
<clipPath id="clip0_216_59131">
<rect width="21" height="25.31" fill="white"/>
</clipPath>
</defs>
</svg>
