<svg width="8" height="14" viewBox="0 0 8 14" fill="none" xmlns="http://www.w3.org/2000/svg">
<path d="M7.574 9.221C7.574 9.73433 7.45967 10.201 7.231 10.621C7.00233 11.0363 6.678 11.377 6.258 11.643C5.838 11.9043 5.35033 12.07 4.795 12.14V13.631H3.584V12.133C2.73933 12.0257 2.04633 11.7177 1.505 11.209C0.968333 10.6957 0.634667 10.04 0.504 9.242L2.142 8.836C2.24467 9.43333 2.48267 9.89067 2.856 10.208C3.22933 10.5207 3.70533 10.677 4.284 10.677C4.592 10.677 4.86733 10.6233 5.11 10.516C5.35733 10.404 5.551 10.2477 5.691 10.047C5.831 9.84167 5.901 9.60367 5.901 9.333C5.901 9.07167 5.82633 8.84767 5.677 8.661C5.53233 8.46967 5.32233 8.30167 5.047 8.157C4.77633 8.00767 4.40067 7.842 3.92 7.66C3.28533 7.41733 2.76733 7.16067 2.366 6.89C1.96467 6.61933 1.66133 6.30667 1.456 5.952C1.25533 5.59267 1.155 5.17033 1.155 4.685C1.155 4.237 1.253 3.82867 1.449 3.46C1.645 3.09133 1.925 2.788 2.289 2.55C2.653 2.312 3.07767 2.15567 3.563 2.081V0.688H4.774V2.074C5.28733 2.15333 5.74233 2.34 6.139 2.634C6.53567 2.92333 6.86233 3.31533 7.119 3.81L5.775 4.629C5.57433 4.26967 5.33633 3.99667 5.061 3.81C4.78567 3.62333 4.47767 3.53 4.137 3.53C3.89433 3.53 3.67267 3.579 3.472 3.677C3.276 3.77033 3.11967 3.90333 3.003 4.076C2.891 4.244 2.835 4.43533 2.835 4.65C2.835 4.88333 2.90033 5.08633 3.031 5.259C3.16633 5.43167 3.37167 5.595 3.647 5.749C3.927 5.89833 4.312 6.06633 4.802 6.253C5.42267 6.48633 5.93133 6.73367 6.328 6.995C6.72933 7.25167 7.03733 7.562 7.252 7.926C7.46667 8.28533 7.574 8.717 7.574 9.221Z" fill="#020038"/>
</svg>
