<svg width="24" height="24" viewBox="0 0 24 24" fill="none" xmlns="http://www.w3.org/2000/svg">
<circle opacity="0.5" cx="12" cy="12" r="11" transform="rotate(-180 12 12)" stroke="#D9D9E1" stroke-width="2"/>
<path d="M12.0086 14.9999C12.1877 14.9984 12.3593 14.9225 12.4869 14.7884L15.7968 11.258C15.9265 11.1202 15.9996 10.9331 16 10.7379C16.0004 10.5426 15.9281 10.3552 15.7989 10.2168C15.6698 10.0784 15.4944 10.0004 15.3113 10C15.1282 9.99957 14.9525 10.0767 14.8228 10.2145L11.9999 13.2255L9.1771 10.2145C9.04737 10.0767 8.87165 9.99957 8.68858 10C8.50552 10.0004 8.33013 10.0784 8.20097 10.2168C8.07181 10.3552 7.99947 10.5426 7.99988 10.7379C8.00029 10.9331 8.07339 11.1202 8.20312 11.258L11.513 14.7884C11.5782 14.857 11.6557 14.9111 11.7408 14.9474C11.8259 14.9837 11.9169 15.0015 12.0086 14.9999Z" fill="#D9D9E1"/>
</svg>
