<svg width="25" height="25" viewBox="0 0 25 25" fill="none" xmlns="http://www.w3.org/2000/svg">
<path d="M16.2338 23.2035C15.039 23.6017 13.7446 23.8009 12.4502 23.8009C6.07792 23.8009 1 18.7229 1 12.3507C1 5.97835 6.17749 1 12.5498 1C18.9221 1 24 6.07792 24 12.4502C24 15.3377 22.9048 17.9264 21.2121 19.9178" stroke="#54B7F9" stroke-width="1.5" stroke-miterlimit="10" stroke-linecap="round" stroke-linejoin="round"/>
<path d="M9.46338 8.86664C9.46338 8.86664 9.76208 6.67617 12.4504 6.47703C14.7404 6.2779 16.2339 7.57227 16.4331 10.0614C16.5326 11.7541 14.5413 13.2476 13.5456 13.4467C12.8487 13.6459 12.3508 14.2433 12.3508 15.0398V15.3385" stroke="#54B7F9" stroke-width="1.5" stroke-miterlimit="10" stroke-linecap="round" stroke-linejoin="round"/>
<path d="M12.251 18.0254V18.4237" stroke="#54B7F9" stroke-width="1.5" stroke-miterlimit="10" stroke-linecap="round" stroke-linejoin="round"/>
</svg>
