<svg width="32" height="25" viewBox="0 0 32 25" fill="none" xmlns="http://www.w3.org/2000/svg">
<g clip-path="url(#clip0_319_68565)">
<path d="M20.2338 23.2035C19.039 23.6017 17.7446 23.8009 16.4502 23.8009C10.0779 23.8009 5 18.7229 5 12.3507C5 5.97835 10.1775 1 16.5498 1C22.9221 1 28 6.07792 28 12.4502C28 15.3377 26.9048 17.9264 25.2121 19.9178" stroke="#80809B" stroke-width="1.5" stroke-miterlimit="10" stroke-linecap="round" stroke-linejoin="round"/>
<path d="M13.4634 8.86664C13.4634 8.86664 13.7621 6.67617 16.4504 6.47703C18.7404 6.2779 20.2339 7.57227 20.4331 10.0614C20.5326 11.7541 18.5413 13.2476 17.5456 13.4467C16.8487 13.6459 16.3508 14.2433 16.3508 15.0398V15.3385" stroke="#80809B" stroke-width="1.5" stroke-miterlimit="10" stroke-linecap="round" stroke-linejoin="round"/>
<path d="M16.251 18.0273V18.4256" stroke="#80809B" stroke-width="1.5" stroke-miterlimit="10" stroke-linecap="round" stroke-linejoin="round"/>
</g>
<defs>
<clipPath id="clip0_319_68565">
<rect width="32" height="24.9682" fill="white"/>
</clipPath>
</defs>
</svg>
