<svg width="36" height="36" viewBox="0 0 36 36" fill="none" xmlns="http://www.w3.org/2000/svg">
<path d="M32 13V31H13" stroke="#020038" stroke-width="1.5" stroke-linecap="round" stroke-linejoin="round"/>
<path d="M7 9L25.3784 4L27 9" stroke="#020038" stroke-width="1.5" stroke-linecap="round" stroke-linejoin="round"/>
<path d="M7.44478 31H3V9H32V13.6472" stroke="#020038" stroke-width="1.5" stroke-linecap="round" stroke-linejoin="round"/>
<path d="M10.191 22.599C10.191 24.0693 11.7191 24.9962 13.484 24.9962C13.826 25.016 14.1681 24.9586 14.487 24.8277C14.8058 24.6969 15.094 24.4956 15.3318 24.2378C15.5696 23.98 15.7515 23.6716 15.8651 23.3337C15.9787 22.9957 16.0213 22.6361 15.99 22.2794C15.99 20.865 14.4238 19.9621 13.0944 19.9621H13.1707C11.444 19.9621 10 18.6516 10 17.1414C10 15.6312 11.5281 15 13.1707 15C14.8134 15 15.8754 15.9669 15.8754 17.1015" stroke="#EC7036" stroke-width="1.5" stroke-linecap="round" stroke-linejoin="round"/>
<path d="M13 15V13" stroke="#EC7036" stroke-width="1.5" stroke-linecap="round" stroke-linejoin="round"/>
<path d="M13 26V25" stroke="#EC7036" stroke-width="1.5" stroke-linecap="round" stroke-linejoin="round"/>
<path d="M21 20H28" stroke="#020038" stroke-width="1.5" stroke-linecap="round" stroke-linejoin="round"/>
<path d="M21 16H28" stroke="#020038" stroke-width="1.5" stroke-linecap="round" stroke-linejoin="round"/>
<path d="M21 24H27" stroke="#54B7F9" stroke-width="1.5" stroke-linecap="round" stroke-linejoin="round"/>
</svg>
