<svg width="36" height="36" viewBox="0 0 36 36" fill="none" xmlns="http://www.w3.org/2000/svg">
<path d="M32.2342 12.5278C32.4781 12.7546 32.6722 13.0297 32.8042 13.3355C32.9362 13.6413 33.0032 13.9713 33.0009 14.3043V27.5157C33.0009 28.1579 32.7457 28.7739 32.2916 29.228C31.8374 29.6822 31.2215 29.9373 30.5792 29.9373H10.5425C10.077 29.9375 9.62132 29.8036 9.22998 29.5515C8.83864 29.2995 8.52824 28.94 8.33594 28.5161" stroke="#020038" stroke-width="1.5" stroke-linecap="round" stroke-linejoin="round"/>
<path d="M25.2498 6.56274H5.22239C3.88497 6.56274 2.80078 7.64694 2.80078 8.98436V22.1957C2.80078 23.5331 3.88497 24.6173 5.22239 24.6173H25.2498C26.5872 24.6173 27.6714 23.5331 27.6714 22.1957V8.98436C27.6714 7.64694 26.5872 6.56274 25.2498 6.56274Z" stroke="#020038" stroke-width="1.5" stroke-linecap="round" stroke-linejoin="round"/>
<path d="M7.02734 10.3589H12.282" stroke="#FE671B" stroke-width="1.5" stroke-linecap="round" stroke-linejoin="round"/>
<path d="M15.1328 20.8213H23.4542" stroke="#54B7F9" stroke-width="1.5" stroke-linecap="round" stroke-linejoin="round"/>
<path d="M2.80078 14.2297H27.6714" stroke="#020038" stroke-width="1.5" stroke-linecap="round" stroke-linejoin="round"/>
</svg>
