<svg width="26" height="19" viewBox="0 0 26 19" fill="none" xmlns="http://www.w3.org/2000/svg">
<g clip-path="url(#clip0_216_59121)">
<path d="M14.5763 17.1826H2.54239C1.52544 17.1826 0.677979 16.3565 0.677979 15.3652V2.47828C0.677979 1.48698 1.52544 0.660889 2.54239 0.660889H18.3898C19.4068 0.660889 20.2542 1.48698 20.2542 2.47828V3.05654" stroke="white" stroke-width="1.5" stroke-miterlimit="10" stroke-linecap="round" stroke-linejoin="round"/>
<path d="M4.74573 6.27832H10.5932" stroke="white" stroke-width="1.5" stroke-miterlimit="10" stroke-linecap="round" stroke-linejoin="round"/>
<path d="M4.74573 11.4827H10.5932" stroke="white" stroke-width="1.5" stroke-miterlimit="10" stroke-linecap="round" stroke-linejoin="round"/>
<path d="M20.2542 13.7956C22.5476 13.7956 24.4068 11.9833 24.4068 9.74778C24.4068 7.51222 22.5476 5.69995 20.2542 5.69995C17.9608 5.69995 16.1017 7.51222 16.1017 9.74778C16.1017 11.9833 17.9608 13.7956 20.2542 13.7956Z" stroke="white" stroke-width="1.5" stroke-miterlimit="10" stroke-linecap="round" stroke-linejoin="round"/>
<path d="M17.5424 12.9694V18.4216L20.1695 17.0999L23.0508 18.4216V12.8042" stroke="white" stroke-width="1.5" stroke-miterlimit="10" stroke-linecap="round" stroke-linejoin="round"/>
</g>
<defs>
<clipPath id="clip0_216_59121">
<rect width="26" height="19" fill="white"/>
</clipPath>
</defs>
</svg>
