<svg width="61" height="70" viewBox="0 0 61 70" fill="none" xmlns="http://www.w3.org/2000/svg">
<g clip-path="url(#clip0_57_86841)">
<path d="M41.4229 55.7288L45.5275 59.8426L52.2217 53.1484" stroke="#EC7036" stroke-width="1.5" stroke-miterlimit="10" stroke-linecap="round" stroke-linejoin="round"/>
<path d="M29.5039 51.1283H4.36157C2.33219 51.1283 0.688477 49.4846 0.688477 47.4552V4.36059C0.688477 2.33121 2.33219 0.6875 4.36157 0.6875H37.6214C39.6508 0.6875 41.2945 2.33121 41.2945 4.36059V38.098" stroke="#020038" stroke-width="1.5" stroke-miterlimit="10" stroke-linecap="round" stroke-linejoin="round"/>
<path d="M8.37451 9.375H22.8465" stroke="#EC7036" stroke-width="1.5" stroke-miterlimit="10" stroke-linecap="round" stroke-linejoin="round"/>
<path d="M8.37451 15.168H33.6179" stroke="#020038" stroke-width="1.5" stroke-miterlimit="10" stroke-linecap="round" stroke-linejoin="round"/>
<path d="M15.6011 24.3984H33.0666" stroke="#020038" stroke-width="1.5" stroke-miterlimit="10" stroke-linecap="round" stroke-linejoin="round"/>
<path d="M15.6011 31.6875H33.0666" stroke="#020038" stroke-width="1.5" stroke-miterlimit="10" stroke-linecap="round" stroke-linejoin="round"/>
<path d="M15.6011 38.9883H33.0666" stroke="#020038" stroke-width="1.5" stroke-miterlimit="10" stroke-linecap="round" stroke-linejoin="round"/>
<path d="M8.37451 24.3984H10.5141" stroke="#020038" stroke-width="1.5" stroke-miterlimit="10" stroke-linecap="round" stroke-linejoin="round"/>
<path d="M8.37451 31.6875H10.5141" stroke="#020038" stroke-width="1.5" stroke-miterlimit="10" stroke-linecap="round" stroke-linejoin="round"/>
<path d="M8.37451 38.9883H10.5141" stroke="#020038" stroke-width="1.5" stroke-miterlimit="10" stroke-linecap="round" stroke-linejoin="round"/>
<path d="M45.877 9.88672H47.0799C49.1093 9.88672 50.753 11.5304 50.753 13.5598V38.4909" stroke="#020038" stroke-width="1.5" stroke-miterlimit="10" stroke-linecap="round" stroke-linejoin="round"/>
<path d="M29.0813 60.3303H13.8196C11.7902 60.3303 10.1465 58.6866 10.1465 56.6572V55.6562" stroke="#020038" stroke-width="1.5" stroke-miterlimit="10" stroke-linecap="round" stroke-linejoin="round"/>
<path d="M46.8225 69.3101C53.9023 69.3101 59.6416 63.5708 59.6416 56.491C59.6416 49.4112 53.9023 43.6719 46.8225 43.6719C39.7427 43.6719 34.0034 49.4112 34.0034 56.491C34.0034 63.5708 39.7427 69.3101 46.8225 69.3101Z" stroke="#54B7F9" stroke-width="1.5" stroke-miterlimit="10" stroke-linecap="round" stroke-linejoin="round"/>
</g>
<defs>
<clipPath id="clip0_57_86841">
<rect width="60.3306" height="70" fill="white"/>
</clipPath>
</defs>
</svg>
