<svg width="40" height="37" viewBox="0 0 40 37" fill="none" xmlns="http://www.w3.org/2000/svg">
<g opacity="0.3">
<path d="M14.7031 14.9707L24.7031 22.6178" stroke="#020038" stroke-width="1.5" stroke-miterlimit="10" stroke-linecap="round" stroke-linejoin="round"/>
<path d="M8.23438 21.4414V30.7623H19.4108" stroke="#020038" stroke-width="1.5" stroke-miterlimit="10" stroke-linecap="round" stroke-linejoin="round"/>
<path d="M32.3516 15.4697L32.3516 6.14885L21.1751 6.14885" stroke="#020038" stroke-width="1.5" stroke-miterlimit="10" stroke-linecap="round" stroke-linejoin="round"/>
<circle cx="8.82353" cy="9.08818" r="8.07353" stroke="#020038" stroke-width="1.5"/>
<circle cx="31.1751" cy="27.9119" r="8.07353" stroke="#020038" stroke-width="1.5"/>
<path d="M34.705 24.9707L30.4403 30.8531L28.2344 28.1793" stroke="#020038" stroke-width="1.5" stroke-miterlimit="10" stroke-linecap="round" stroke-linejoin="round"/>
<path d="M7.07192 11.2695C7.07192 12.3278 8.13027 12.9326 9.33981 12.9326C10.5494 12.9326 11.1541 12.0254 11.1541 11.1183C11.1541 10.2111 10.0958 9.60634 9.03743 9.60634C7.82788 9.60634 6.76953 8.69919 6.76953 7.64084C6.76953 6.58249 7.82788 6.12891 9.03743 6.12891C10.247 6.12891 11.0029 6.73368 11.0029 7.48964" stroke="#020038" stroke-width="1.5" stroke-miterlimit="10" stroke-linecap="round" stroke-linejoin="round"/>
<path d="M9.1875 5.97729V4.91895" stroke="#020038" stroke-width="1.5" stroke-miterlimit="10" stroke-linecap="round" stroke-linejoin="round"/>
<path d="M9.1875 13.8391V12.7808" stroke="#020038" stroke-width="1.5" stroke-miterlimit="10" stroke-linecap="round" stroke-linejoin="round"/>
</g>
</svg>
