<svg width="32" height="32" viewBox="0 0 32 32" fill="none" xmlns="http://www.w3.org/2000/svg">
<g opacity="0.3">
<path d="M23.9036 9.38076V5.91088L18.8915 1.02734H15.4217H1.02808V30.8426L23.9036 30.9711V28.7864" stroke="#020038" stroke-width="1.5" stroke-miterlimit="10" stroke-linecap="round" stroke-linejoin="round"/>
<path d="M18.8916 1.02734V6.81048H23.2611" stroke="#020038" stroke-width="1.5" stroke-miterlimit="10" stroke-linecap="round" stroke-linejoin="round"/>
<path d="M6.81128 10.0234H18.1205" stroke="#020038" stroke-width="1.5" stroke-miterlimit="10" stroke-linecap="round" stroke-linejoin="round"/>
<path d="M6.81128 14.9062H13.751" stroke="#020038" stroke-width="1.5" stroke-miterlimit="10" stroke-linecap="round" stroke-linejoin="round"/>
<path d="M23.9036 12.3379C27.502 12.3379 30.5863 15.2937 30.5863 19.0206C30.5863 22.7475 27.6305 25.7034 23.9036 25.7034" stroke="#020038" stroke-width="1.5" stroke-miterlimit="10" stroke-linecap="round" stroke-linejoin="round"/>
<path d="M23.9037 25.5744C20.3053 25.5744 17.2209 22.6186 17.2209 18.8917C17.2209 15.1648 20.1768 12.209 23.9037 12.209" stroke="#020038" stroke-width="1.5" stroke-miterlimit="10" stroke-linecap="round" stroke-linejoin="round"/>
<path d="M22.2331 20.5609C22.2331 21.4605 23.1327 21.9745 24.1608 21.9745C25.1889 21.9745 25.703 21.2035 25.703 20.4324C25.703 19.6613 24.8034 19.1472 23.9038 19.1472C22.8757 19.1472 21.9761 18.3761 21.9761 17.4765C21.9761 16.5769 22.8757 16.1914 23.9038 16.1914C24.9319 16.1914 25.5745 16.7055 25.5745 17.348" stroke="#020038" stroke-width="1.5" stroke-miterlimit="10" stroke-linecap="round" stroke-linejoin="round"/>
<path d="M24.0322 16.0637V15.1641" stroke="#020038" stroke-width="1.5" stroke-miterlimit="10" stroke-linecap="round" stroke-linejoin="round"/>
<path d="M24.0322 22.7473V21.8477" stroke="#020038" stroke-width="1.5" stroke-miterlimit="10" stroke-linecap="round" stroke-linejoin="round"/>
</g>
</svg>
