<svg width="40" height="37" viewBox="0 0 40 37" fill="none" xmlns="http://www.w3.org/2000/svg">
<g opacity="0.3">
<path d="M14.7031 14.9707L24.7031 22.6178" stroke="#020038" stroke-width="1.5" stroke-miterlimit="10" stroke-linecap="round" stroke-linejoin="round"/>
<path d="M8.23438 21.4414V30.7623H19.4108" stroke="#020038" stroke-width="1.5" stroke-miterlimit="10" stroke-linecap="round" stroke-linejoin="round"/>
<path d="M32.3516 15.4697L32.3516 6.14885L21.1751 6.14885" stroke="#020038" stroke-width="1.5" stroke-miterlimit="10" stroke-linecap="round" stroke-linejoin="round"/>
<circle cx="8.82353" cy="9.08818" r="8.07353" stroke="#020038" stroke-width="1.5"/>
<circle cx="31.1751" cy="27.9119" r="8.07353" stroke="#020038" stroke-width="1.5"/>
<path d="M12.3534 6.14697L8.08869 12.0293L5.88281 9.35553" stroke="#020038" stroke-width="1.5" stroke-miterlimit="10" stroke-linecap="round" stroke-linejoin="round"/>
<path d="M29.7125 30.145C29.7125 31.2033 30.7709 31.8081 31.9804 31.8081C33.19 31.8081 33.7948 30.9009 33.7948 29.9938C33.7948 29.0866 32.7364 28.4818 31.6781 28.4818C30.4685 28.4818 29.4102 27.5747 29.4102 26.5163C29.4102 25.458 30.4685 25.0044 31.6781 25.0044C32.8876 25.0044 33.6436 25.6092 33.6436 26.3651" stroke="#020038" stroke-width="1.5" stroke-miterlimit="10" stroke-linecap="round" stroke-linejoin="round"/>
<path d="M31.8281 24.8528V23.7944" stroke="#020038" stroke-width="1.5" stroke-miterlimit="10" stroke-linecap="round" stroke-linejoin="round"/>
<path d="M31.8281 32.7146V31.6562" stroke="#020038" stroke-width="1.5" stroke-miterlimit="10" stroke-linecap="round" stroke-linejoin="round"/>
</g>
</svg>
