<svg width="120" height="120" viewBox="0 0 120 120" fill="none" xmlns="http://www.w3.org/2000/svg">
<path d="M37.1079 21.8125H56.0098" stroke="#EC7036" stroke-width="2" stroke-miterlimit="10" stroke-linecap="round" stroke-linejoin="round"/>
<path d="M41.9214 45.293H56.0098" stroke="#020038" stroke-width="2" stroke-miterlimit="10" stroke-linecap="round" stroke-linejoin="round"/>
<path d="M24.311 34.0234H56.0099" stroke="#54B7F9" stroke-width="2" stroke-miterlimit="10" stroke-linecap="round" stroke-linejoin="round"/>
<path d="M89.2348 58.5597V83.097C89.2348 85.7973 87.0041 87.9106 84.4213 87.9106H8.81354C6.11326 87.9106 4 85.6799 4 83.097V62.434V31.9092V26.626C4 23.9258 6.23066 21.8125 8.81354 21.8125H27.5981" stroke="#020038" stroke-width="2" stroke-miterlimit="10" stroke-linecap="round" stroke-linejoin="round"/>
<path d="M4 72.8828H89.2348" stroke="#020038" stroke-width="2" stroke-miterlimit="10" stroke-linecap="round" stroke-linejoin="round"/>
<path d="M56.9491 101.998H36.2861L39.5734 88.0273H53.5444L56.9491 101.998Z" stroke="#020038" stroke-width="2" stroke-miterlimit="10" stroke-linecap="round" stroke-linejoin="round"/>
<path d="M28.0679 102H65.0499" stroke="#020038" stroke-width="2" stroke-miterlimit="10" stroke-linecap="round" stroke-linejoin="round"/>
<path d="M116.355 17H61.293V52.221H116.355V17Z" stroke="#54B7F9" stroke-width="2" stroke-miterlimit="10" stroke-linecap="round" stroke-linejoin="round"/>
<path d="M61.293 17L88.7653 34.4931L116.355 17" stroke="#54B7F9" stroke-width="2" stroke-miterlimit="10" stroke-linecap="round" stroke-linejoin="round"/>
</svg>
