<svg width="30" height="30" viewBox="0 0 30 30" fill="none" xmlns="http://www.w3.org/2000/svg">
<path d="M20.67 16.3402V12.2502C20.67 8.54024 17.77 5.35024 14.05 5.29024C10.27 5.22024 7.19 8.27024 7.19 12.0302V16.3102C7.19 17.2502 6.76 18.1402 6.03 18.7302C5.38 19.2502 5 20.0402 5 20.8702V22.3102H22.79V20.8502C22.79 20.0302 22.42 19.2502 21.79 18.7302C21.08 18.1402 20.67 17.2602 20.67 16.3402Z" stroke="#D9D9E1" stroke-width="1.5" stroke-miterlimit="10" stroke-linecap="round" stroke-linejoin="round"/>
<path d="M16.6399 24.8008C16.3799 26.0708 15.2499 27.0308 13.8999 27.0308C12.5699 27.0308 11.4499 26.1008 11.1699 24.8408" stroke="#D9D9E1" stroke-width="1.5" stroke-miterlimit="10" stroke-linecap="round" stroke-linejoin="round"/>
<path d="M14.05 5.29V3" stroke="#D9D9E1" stroke-width="1.5" stroke-miterlimit="10" stroke-linecap="round" stroke-linejoin="round"/>
<circle cx="19.5" cy="9.51562" r="4.5" fill="#FE671B"/>
</svg>
