<svg width="10" height="11" viewBox="0 0 10 11" fill="none" xmlns="http://www.w3.org/2000/svg">
<path d="M2.618 4.631C2.22133 4.631 1.85967 4.53767 1.533 4.351C1.20633 4.15967 0.947333 3.89367 0.756 3.553C0.564667 3.20767 0.469 2.81333 0.469 2.37C0.469 1.922 0.562333 1.52767 0.749 1.187C0.940333 0.841666 1.197 0.575666 1.519 0.389C1.841 0.202333 2.198 0.108999 2.59 0.108999C2.98667 0.108999 3.346 0.209333 3.668 0.409999C3.99467 0.610666 4.25133 0.886 4.438 1.236C4.62467 1.58133 4.718 1.964 4.718 2.384C4.718 2.79 4.62467 3.16567 4.438 3.511C4.256 3.85167 4.004 4.12467 3.682 4.33C3.36467 4.53067 3.01 4.631 2.618 4.631ZM2.464 10H1.309L7.511 0.242H8.666L2.464 10ZM2.618 3.539C2.8 3.539 2.968 3.48767 3.122 3.385C3.276 3.28233 3.39733 3.14467 3.486 2.972C3.57467 2.79467 3.619 2.59867 3.619 2.384C3.619 2.146 3.57233 1.93833 3.479 1.761C3.39033 1.58367 3.26667 1.446 3.108 1.348C2.954 1.25 2.78133 1.201 2.59 1.201C2.296 1.201 2.051 1.30367 1.855 1.509C1.66367 1.71433 1.568 2.00133 1.568 2.37C1.568 2.734 1.666 3.021 1.862 3.231C2.06267 3.43633 2.31467 3.539 2.618 3.539ZM7.483 10.133C7.08633 10.133 6.72467 10.0397 6.398 9.853C6.07133 9.66167 5.81233 9.39567 5.621 9.055C5.43433 8.70967 5.341 8.31067 5.341 7.858C5.341 7.41933 5.43433 7.02967 5.621 6.689C5.80767 6.34367 6.05967 6.07767 6.377 5.891C6.699 5.69967 7.056 5.604 7.448 5.604C7.84467 5.604 8.20633 5.70433 8.533 5.905C8.85967 6.10567 9.11633 6.37867 9.303 6.724C9.49433 7.06933 9.59 7.44967 9.59 7.865C9.59 8.27567 9.49667 8.656 9.31 9.006C9.128 9.35133 8.876 9.62667 8.554 9.832C8.232 10.0327 7.875 10.133 7.483 10.133ZM7.483 9.034C7.66967 9.034 7.84 8.985 7.994 8.887C8.148 8.78433 8.26933 8.64433 8.358 8.467C8.44667 8.28967 8.491 8.089 8.491 7.865C8.491 7.63167 8.44433 7.42867 8.351 7.256C8.26233 7.07867 8.13867 6.94333 7.98 6.85C7.82133 6.752 7.644 6.703 7.448 6.703C7.16333 6.703 6.923 6.80567 6.727 7.011C6.53567 7.21633 6.44 7.49867 6.44 7.858C6.44 8.23133 6.54033 8.52067 6.741 8.726C6.94167 8.93133 7.189 9.034 7.483 9.034Z" fill="#020038"/>
</svg>
