<svg width="28" height="23" viewBox="0 0 28 23" fill="none" xmlns="http://www.w3.org/2000/svg">
<path d="M19.4625 20.285C21.7987 20.285 23.6925 18.3911 23.6925 16.055C23.6925 13.7188 21.7987 11.825 19.4625 11.825C17.1264 11.825 15.2325 13.7188 15.2325 16.055C15.2325 18.3911 17.1264 20.285 19.4625 20.285Z" stroke="white" stroke-width="1.5" stroke-linecap="round" stroke-linejoin="round"/>
<path d="M22.9351 18.4775L26.3851 20.8775" stroke="white" stroke-width="1.5" stroke-linecap="round" stroke-linejoin="round"/>
<path d="M9.59247 12.62C12.7322 12.62 15.2775 10.0747 15.2775 6.935C15.2775 3.79526 12.7322 1.25 9.59247 1.25C6.45273 1.25 3.90747 3.79526 3.90747 6.935C3.90747 10.0747 6.45273 12.62 9.59247 12.62Z" stroke="white" stroke-width="1.5" stroke-linecap="round" stroke-linejoin="round"/>
<path d="M4.10999 14.3374C3.06174 15.1644 2.21475 16.2184 1.63275 17.42C1.05076 18.6217 0.748937 19.9397 0.750003 21.2749H14.25" stroke="white" stroke-width="1.5" stroke-linecap="round" stroke-linejoin="round"/>
</svg>
