<svg width="36" height="36" viewBox="0 0 36 36" fill="none" xmlns="http://www.w3.org/2000/svg">
<path d="M26.7891 10L34.0591 16.59" stroke="#020038" stroke-width="1.5" stroke-linecap="round" stroke-linejoin="round"/>
<path d="M1.75 16.82L10.46 8.41L12.56 6.39L17.47 1.75L26.79 10" stroke="#020038" stroke-width="1.5" stroke-linecap="round" stroke-linejoin="round"/>
<path d="M7.11984 30.33L4.88984 30.34L4.83984 18.46" stroke="#020038" stroke-width="1.5" stroke-linecap="round" stroke-linejoin="round"/>
<path d="M30.9617 18.3501L30.9717 19.1801L31.0217 30.2301L28.7617 30.2401" stroke="#020038" stroke-width="1.5" stroke-linecap="round" stroke-linejoin="round"/>
<path d="M17.9116 25.67C20.8442 25.67 23.2216 23.2927 23.2216 20.36C23.2216 17.4274 20.8442 15.05 17.9116 15.05C14.9789 15.05 12.6016 17.4274 12.6016 20.36C12.6016 23.2927 14.9789 25.67 17.9116 25.67Z" stroke="#FE671B" stroke-width="1.5" stroke-linecap="round" stroke-linejoin="round"/>
<path d="M23.0306 27.27C24.0091 28.0425 24.7992 29.0272 25.3414 30.1498C25.8836 31.2723 26.1637 32.5034 26.1606 33.75H9.64063C9.63943 32.5027 9.92141 31.2714 10.4653 30.1489C11.0093 29.0264 11.8009 28.042 12.7806 27.27" stroke="#54B7F9" stroke-width="1.5" stroke-linecap="round" stroke-linejoin="round"/>
</svg>
