<svg width="50" height="50" viewBox="0 0 50 50" fill="none" xmlns="http://www.w3.org/2000/svg">
<path d="M32.2998 14L40.1998 21.2" stroke="#020038" stroke-width="1.5" stroke-miterlimit="10" stroke-linecap="round" stroke-linejoin="round"/>
<path d="M5 21.3L14.5 12.2L16.8 10L22.2 5L32.3 14" stroke="#020038" stroke-width="1.5" stroke-miterlimit="10" stroke-linecap="round" stroke-linejoin="round"/>
<path d="M36.7998 24.0016V18.1016" stroke="#020038" stroke-width="1.5" stroke-miterlimit="10" stroke-linecap="round" stroke-linejoin="round"/>
<path d="M8.2998 18.1016V36.1016H23.4998" stroke="#020038" stroke-width="1.5" stroke-miterlimit="10" stroke-linecap="round" stroke-linejoin="round"/>
<path d="M36.3 44.9008C41.1601 44.9008 45.1 40.9609 45.1 36.1008C45.1 31.2407 41.1601 27.3008 36.3 27.3008C31.4399 27.3008 27.5 31.2407 27.5 36.1008C27.5 40.9609 31.4399 44.9008 36.3 44.9008Z" stroke="#EC7036" stroke-miterlimit="10" stroke-linecap="round" stroke-linejoin="round"/>
<path d="M21.0002 22.8984H14.7002V29.2984H21.0002V22.8984Z" stroke="#54B7F9" stroke-width="1.5" stroke-miterlimit="10" stroke-linecap="round" stroke-linejoin="round"/>
<path d="M38.6998 38.8008V39.7008H33.9998V38.9008C34.9998 38.2008 35.8998 37.5008 36.4998 36.9008C37.0998 36.2008 37.3998 35.6008 37.3998 34.9008C37.3998 34.5008 37.2998 34.2008 37.0998 34.0008C36.8998 33.8008 36.5998 33.7008 36.1998 33.7008C35.7998 33.7008 35.4998 33.8008 35.1998 34.1008C34.9998 34.4008 34.7998 34.7008 34.7998 35.2008L33.7998 35.1008C33.7998 34.6008 33.8998 34.2008 34.0998 33.9008C34.2998 33.5008 34.5998 33.3008 34.8998 33.1008C35.2998 32.9008 35.6998 32.8008 36.0998 32.8008C36.4998 32.8008 36.8998 32.9008 37.1998 33.1008C37.4998 33.3008 37.7998 33.5008 37.9998 33.9008C38.1998 34.2008 38.2998 34.6008 38.2998 35.0008C38.2998 35.5008 38.1998 36.0008 37.8998 36.4008C37.6998 36.9008 37.2998 37.3008 36.8998 37.7008C36.4998 38.1008 35.9998 38.5008 35.3998 39.0008H38.6998V38.8008Z" fill="black"/>
</svg>
