<svg width="50" height="50" viewBox="0 0 50 50" fill="none" xmlns="http://www.w3.org/2000/svg">
<path d="M32.2998 14L40.1998 21.2" stroke="#020038" stroke-width="1.5" stroke-miterlimit="10" stroke-linecap="round" stroke-linejoin="round"/>
<path d="M5 21.3L14.5 12.2L16.8 10L22.2 5L32.3 14" stroke="#020038" stroke-width="1.5" stroke-miterlimit="10" stroke-linecap="round" stroke-linejoin="round"/>
<path d="M36.7998 24.0016V18.1016" stroke="#020038" stroke-width="1.5" stroke-miterlimit="10" stroke-linecap="round" stroke-linejoin="round"/>
<path d="M8.2998 18.1016V36.1016H23.4998" stroke="#020038" stroke-width="1.5" stroke-miterlimit="10" stroke-linecap="round" stroke-linejoin="round"/>
<path d="M36.3 44.9008C41.1601 44.9008 45.1 40.9609 45.1 36.1008C45.1 31.2407 41.1601 27.3008 36.3 27.3008C31.4399 27.3008 27.5 31.2407 27.5 36.1008C27.5 40.9609 31.4399 44.9008 36.3 44.9008Z" stroke="#EC7036" stroke-miterlimit="10" stroke-linecap="round" stroke-linejoin="round"/>
<path d="M21.0002 22.8984H14.7002V29.2984H21.0002V22.8984Z" stroke="#54B7F9" stroke-width="1.5" stroke-miterlimit="10" stroke-linecap="round" stroke-linejoin="round"/>
<path d="M36.1999 32.5H37.1999V39.5H36.1999V34.5H34.3999V33.7H35.5999C35.7999 33.7 35.9999 33.7 36.0999 33.6C36.1999 33.5 36.2999 33.3 36.2999 33.1V32.5H36.1999Z" fill="black"/>
</svg>
