<svg width="36" height="36" viewBox="0 0 36 36" fill="none" xmlns="http://www.w3.org/2000/svg">
<path d="M13.5559 31.0793C10.5212 29.9143 7.98705 27.7124 6.39432 24.8564C4.8016 22.0005 4.25106 18.6714 4.83846 15.4481C5.42587 12.2248 7.11406 9.31133 9.60937 7.21452C12.1047 5.11771 15.2492 3.97023 18.4959 3.97168" stroke="#EC7036" stroke-width="1.5" stroke-linecap="round" stroke-linejoin="round"/>
<path d="M23.9019 5.07178C26.8504 6.33152 29.2769 8.58146 30.7701 11.4404C32.2633 14.2994 32.7315 17.5916 32.0953 20.7591C31.4591 23.9267 29.7577 26.7747 27.2792 28.8208C24.8008 30.867 21.6979 31.9854 18.4961 31.9864" stroke="#54B7F9" stroke-width="1.5" stroke-linecap="round" stroke-linejoin="round"/>
<path d="M17.4245 1.62939L19.6866 3.91285L17.3164 6.31384" stroke="#EC7036" stroke-width="1.5" stroke-linecap="round" stroke-linejoin="round"/>
<path d="M20.016 34.3705L17.7539 32.087L20.1241 29.686" stroke="#54B7F9" stroke-width="1.5" stroke-linecap="round" stroke-linejoin="round"/>
<path d="M24.7903 12.5937L22.1789 9.94922H12.332V25.7487H24.8319V12.5937" stroke="#020038" stroke-width="1.5" stroke-linecap="round" stroke-linejoin="round"/>
<path d="M15.1016 14.8604H21.655" stroke="#020038" stroke-width="1.5" stroke-linecap="round" stroke-linejoin="round"/>
<path d="M15.1016 17.6978H21.655" stroke="#020038" stroke-width="1.5" stroke-linecap="round" stroke-linejoin="round"/>
<path d="M15.1016 20.5352H17.7629" stroke="#020038" stroke-width="1.5" stroke-linecap="round" stroke-linejoin="round"/>
</svg>
