<svg width="21" height="21" viewBox="0 0 21 21" fill="none" xmlns="http://www.w3.org/2000/svg">
<g opacity="0.3">
<path d="M5.25 7.875C6.69975 7.875 7.875 6.69975 7.875 5.25C7.875 3.80025 6.69975 2.625 5.25 2.625C3.80025 2.625 2.625 3.80025 2.625 5.25C2.625 6.69975 3.80025 7.875 5.25 7.875Z" stroke="#020038" stroke-width="2" stroke-linecap="round" stroke-linejoin="round"/>
<path d="M5.25 18.375C6.69975 18.375 7.875 17.1997 7.875 15.75C7.875 14.3003 6.69975 13.125 5.25 13.125C3.80025 13.125 2.625 14.3003 2.625 15.75C2.625 17.1997 3.80025 18.375 5.25 18.375Z" stroke="#020038" stroke-width="2" stroke-linecap="round" stroke-linejoin="round"/>
<path d="M17.5005 3.5L7.10547 13.895" stroke="#020038" stroke-width="2" stroke-linecap="round" stroke-linejoin="round"/>
<path d="M12.6602 12.6699L17.4989 17.4999" stroke="#020038" stroke-width="2" stroke-linecap="round" stroke-linejoin="round"/>
<path d="M7.10547 7.10498L10.5005 10.5" stroke="#020038" stroke-width="2" stroke-linecap="round" stroke-linejoin="round"/>
</g>
</svg>
