<svg width="31" height="25" viewBox="0 0 32 25" fill="none" xmlns="http://www.w3.org/2000/svg">
<path d="M8.06926 4.78355L5.77922 2.99134L2.99134 5.77922L4.78355 8.06926C4.38528 8.76623 4.08658 9.4632 3.88745 10.1602L1 10.5584V14.5411L3.88745 14.9394C4.08658 15.6364 4.38528 16.3333 4.78355 17.0303L2.99134 19.2208L5.77922 22.0087L8.06926 20.2165C8.66667 20.6147 9.36364 20.9134 10.1602 21.1126L10.5584 24H14.5411L14.9394 21.1126C15.6364 20.9134 16.3333 20.6147 17.0303 20.2165L19.3203 22.0087L22.1082 19.2208L20.2165 16.9307C20.6147 16.3333 20.9134 15.6364 21.1126 14.8398L24 14.4416V10.4589L21.1126 10.0606C20.9134 9.36364 20.6147 8.66667 20.2165 7.9697L22.0087 5.67965L19.2208 2.99134L16.9307 4.78355C16.3333 4.38528 15.6364 4.08658 14.8398 3.88745L14.4416 1H10.4589" stroke="#54B7F9" stroke-width="1.5" stroke-miterlimit="10" stroke-linecap="round" stroke-linejoin="round"/>
<path d="M12.5499 15.7356C14.3096 15.7356 15.7361 14.3091 15.7361 12.5494C15.7361 10.7898 14.3096 9.36328 12.5499 9.36328C10.7903 9.36328 9.36377 10.7898 9.36377 12.5494C9.36377 14.3091 10.7903 15.7356 12.5499 15.7356Z" stroke="#54B7F9" stroke-width="1.5" stroke-miterlimit="10" stroke-linecap="round" stroke-linejoin="round"/>
</svg>
