<svg width="32" height="25" viewBox="0 0 32 25" fill="none" xmlns="http://www.w3.org/2000/svg">
<g clip-path="url(#clip0_319_68556)">
<path d="M12.0693 4.78355L9.77922 2.99134L6.99134 5.77922L8.78355 8.06926C8.38528 8.76623 8.08658 9.4632 7.88745 10.1602L5 10.5584V14.5411L7.88745 14.9394C8.08658 15.6364 8.38528 16.3333 8.78355 17.0303L6.99134 19.2208L9.77922 22.0087L12.0693 20.2165C12.6667 20.6147 13.3636 20.9134 14.1602 21.1126L14.5584 24H18.5411L18.9394 21.1126C19.6364 20.9134 20.3333 20.6147 21.0303 20.2165L23.3203 22.0087L26.1082 19.2208L24.2165 16.9307C24.6147 16.3333 24.9134 15.6364 25.1126 14.8398L28 14.4416V10.4589L25.1126 10.0606C24.9134 9.36364 24.6147 8.66667 24.2165 7.9697L26.0087 5.67965L23.2208 2.99134L20.9307 4.78355C20.3333 4.38528 19.6364 4.08658 18.8398 3.88745L18.4416 1H14.4589" stroke="#80809B" stroke-width="1.5" stroke-miterlimit="10" stroke-linecap="round" stroke-linejoin="round"/>
<path d="M16.5499 15.7356C18.3096 15.7356 19.7361 14.3091 19.7361 12.5494C19.7361 10.7898 18.3096 9.36328 16.5499 9.36328C14.7903 9.36328 13.3638 10.7898 13.3638 12.5494C13.3638 14.3091 14.7903 15.7356 16.5499 15.7356Z" stroke="#80809B" stroke-width="1.5" stroke-miterlimit="10" stroke-linecap="round" stroke-linejoin="round"/>
</g>
<defs>
<clipPath id="clip0_319_68556">
<rect width="32" height="24.9682" fill="white"/>
</clipPath>
</defs>
</svg>
