<svg width="36" height="36" viewBox="0 0 36 36" fill="none" xmlns="http://www.w3.org/2000/svg">
<path d="M24 27.5464L25.9035 30L29 26" stroke="#EC7036" stroke-width="1.5" stroke-linecap="round" stroke-linejoin="round"/>
<path d="M18.1859 28H6.08208C5.52988 28 5.00029 27.8003 4.60982 27.4448C4.21936 27.0894 4 26.6072 4 26.1045V3.8955C4 3.39278 4.21936 2.91064 4.60982 2.55517C5.00029 2.19969 5.52988 2 6.08208 2H24.9179C25.4701 2 25.9997 2.19969 26.3902 2.55517C26.7806 2.91064 27 3.39278 27 3.8955V19.7419" stroke="#020038" stroke-width="1.5" stroke-linecap="round" stroke-linejoin="round"/>
<path d="M8 8H19" stroke="#020038" stroke-width="1.5" stroke-linecap="round" stroke-linejoin="round"/>
<path d="M13 13H17" stroke="#020038" stroke-width="1.5" stroke-linecap="round" stroke-linejoin="round"/>
<path d="M13 18H17" stroke="#020038" stroke-width="1.5" stroke-linecap="round" stroke-linejoin="round"/>
<path d="M13 23H17" stroke="#020038" stroke-width="1.5" stroke-linecap="round" stroke-linejoin="round"/>
<path d="M8 13H10" stroke="#020038" stroke-width="1.5" stroke-linecap="round" stroke-linejoin="round"/>
<path d="M8 18H10" stroke="#020038" stroke-width="1.5" stroke-linecap="round" stroke-linejoin="round"/>
<path d="M8 23H10" stroke="#020038" stroke-width="1.5" stroke-linecap="round" stroke-linejoin="round"/>
<path d="M26.5 33C29.5376 33 32 30.5376 32 27.5C32 24.4624 29.5376 22 26.5 22C23.4624 22 21 24.4624 21 27.5C21 30.5376 23.4624 33 26.5 33Z" stroke="#54B7F9" stroke-width="1.5" stroke-linecap="round" stroke-linejoin="round"/>
</svg>
