<svg width="28" height="34" viewBox="0 0 28 34" fill="none" xmlns="http://www.w3.org/2000/svg">
<g opacity="0.3">
<path d="M3.82352 27.3085H17.7512C19.2532 27.3085 20.6187 26.0796 20.6187 24.441V3.82255C20.6187 2.32054 19.3898 0.955078 17.7512 0.955078H3.82352C2.32152 0.955078 0.956055 2.18399 0.956055 3.82255V24.5776C1.0926 26.0796 2.32152 27.3085 3.82352 27.3085Z" stroke="#020038" stroke-width="1.5" stroke-miterlimit="10" stroke-linecap="round" stroke-linejoin="round"/>
<path d="M7.51025 30.5849V31.131C7.51025 32.0869 8.32953 32.9061 9.28535 32.9061H25.1247C26.0805 32.9061 26.8998 32.0869 26.8998 31.131V8.32783C26.8998 7.37201 26.0805 6.55273 25.1247 6.55273H24.1689" stroke="#020038" stroke-width="1.5" stroke-miterlimit="10" stroke-linecap="round" stroke-linejoin="round"/>
<path d="M6.5542 7.91797H15.0201" stroke="#020038" stroke-width="1.5" stroke-miterlimit="10" stroke-linecap="round" stroke-linejoin="round"/>
<path d="M6.5542 12.1523H15.0201" stroke="#020038" stroke-width="1.5" stroke-miterlimit="10" stroke-linecap="round" stroke-linejoin="round"/>
<path d="M6.5542 16.5215H15.0201" stroke="#020038" stroke-width="1.5" stroke-miterlimit="10" stroke-linecap="round" stroke-linejoin="round"/>
</g>
</svg>
