<svg width="26" height="26" viewBox="0 0 26 26" fill="none" xmlns="http://www.w3.org/2000/svg">
<path d="M9.06089 5C7.98387 5 6.95097 5.42373 6.18941 6.17794C5.42784 6.93215 5 7.95514 5 9.02175V13.9029C5 14.9695 5.42784 15.9924 6.18941 16.7466C6.95097 17.5009 7.98387 17.9246 9.06089 17.9246H10.4862V21L13.5119 17.9483H17.9471C18.48 17.9483 19.0077 17.8442 19.4999 17.642C19.9921 17.4398 20.4393 17.1434 20.8157 16.7698C21.1922 16.3963 21.4906 15.9529 21.6938 15.465C21.897 14.9771 22.001 14.4544 22 13.9266V9.06113C22 7.99587 21.5732 6.97418 20.8134 6.2202C20.0536 5.46621 19.0227 5.04156 17.9471 5.03947H9.06089V5Z" stroke="#FE671B" stroke-width="1.5" stroke-linecap="round" stroke-linejoin="round"/>
<path d="M10 10H17" stroke="#FE671B" stroke-width="1.5" stroke-linecap="round" stroke-linejoin="round"/>
<path d="M10 13H17" stroke="#FE671B" stroke-width="1.5" stroke-linecap="round" stroke-linejoin="round"/>
</svg>
