<svg width="21" height="22" viewBox="0 0 21 22" fill="none" xmlns="http://www.w3.org/2000/svg">
<g opacity="0.3">
<path d="M10.5 11.875C10.9832 11.875 11.375 11.4832 11.375 11C11.375 10.5168 10.9832 10.125 10.5 10.125C10.0168 10.125 9.625 10.5168 9.625 11C9.625 11.4832 10.0168 11.875 10.5 11.875Z" stroke="#020038" stroke-linecap="round" stroke-linejoin="round"/>
<path d="M10.5 5.75C10.9832 5.75 11.375 5.35825 11.375 4.875C11.375 4.39175 10.9832 4 10.5 4C10.0168 4 9.625 4.39175 9.625 4.875C9.625 5.35825 10.0168 5.75 10.5 5.75Z" stroke="#020038" stroke-linecap="round" stroke-linejoin="round"/>
<path d="M10.5 18C10.9832 18 11.375 17.6082 11.375 17.125C11.375 16.6418 10.9832 16.25 10.5 16.25C10.0168 16.25 9.625 16.6418 9.625 17.125C9.625 17.6082 10.0168 18 10.5 18Z" stroke="#020038" stroke-linecap="round" stroke-linejoin="round"/>
</g>
</svg>
