<svg width="32" height="34" viewBox="0 0 32 34" fill="none" xmlns="http://www.w3.org/2000/svg">
<g opacity="0.3">
<path d="M25.4464 9.92704V6.21888L20.0901 1H16.382H1V32.8627L25.4464 33V30.6652" stroke="#020038" stroke-width="1.5" stroke-miterlimit="10" stroke-linecap="round" stroke-linejoin="round"/>
<path d="M20.0903 1V7.18026H24.7599" stroke="#020038" stroke-width="1.5" stroke-miterlimit="10" stroke-linecap="round" stroke-linejoin="round"/>
<path d="M7.18018 10.6133H19.266" stroke="#020038" stroke-width="1.5" stroke-miterlimit="10" stroke-linecap="round" stroke-linejoin="round"/>
<path d="M7.18018 15.832H14.5965" stroke="#020038" stroke-width="1.5" stroke-miterlimit="10" stroke-linecap="round" stroke-linejoin="round"/>
<path d="M30.6652 19.8145H20.3647V27.6428H30.6652V19.8145Z" stroke="#020038" stroke-width="1.5" stroke-miterlimit="10" stroke-linecap="round" stroke-linejoin="round"/>
<path d="M21.4634 19.8148V16.7934C21.4634 14.596 23.2488 12.8105 25.4462 12.8105C27.6436 12.8105 29.429 14.596 29.429 16.7934V19.8148" stroke="#020038" stroke-width="1.5" stroke-miterlimit="10" stroke-linecap="round" stroke-linejoin="round"/>
<path d="M25.4464 24.8966C26.0532 24.8966 26.5451 24.4047 26.5451 23.7979C26.5451 23.1911 26.0532 22.6992 25.4464 22.6992C24.8396 22.6992 24.3477 23.1911 24.3477 23.7979C24.3477 24.4047 24.8396 24.8966 25.4464 24.8966Z" fill="#020038"/>
</g>
</svg>
