<svg width="27" height="18" viewBox="0 0 27 18" fill="none" xmlns="http://www.w3.org/2000/svg">
<g clip-path="url(#clip0_216_59152)">
<path d="M23.4395 6.19538C21.5139 5.44189 19.3372 6.11165 18.0814 7.78607C16.6581 9.79538 17.1605 12.6419 19.1698 14.0651C21.1791 15.4884 24.0256 14.9861 25.4488 12.9768C25.7 12.5582 25.9512 12.1396 26.0349 11.721" stroke="white" stroke-width="1.5" stroke-miterlimit="10" stroke-linecap="round" stroke-linejoin="round"/>
<path d="M20.5093 9.71149L22.1 11.2185L25.4488 7.86963" stroke="white" stroke-width="1.5" stroke-miterlimit="10" stroke-linecap="round" stroke-linejoin="round"/>
<path d="M18.6675 17.4139H3.01166C2.00701 17.4139 1.1698 16.5767 1.1698 15.572V2.51154C1.1698 1.50689 2.00701 0.669678 3.01166 0.669678H18.6675C19.6721 0.669678 20.5093 1.50689 20.5093 2.51154V3.01386" stroke="white" stroke-width="1.5" stroke-miterlimit="10" stroke-linecap="round" stroke-linejoin="round"/>
<path d="M5.18835 6.36279H10.9651" stroke="white" stroke-width="1.5" stroke-miterlimit="10" stroke-linecap="round" stroke-linejoin="round"/>
<path d="M5.18835 11.6372H10.9651" stroke="white" stroke-width="1.5" stroke-miterlimit="10" stroke-linecap="round" stroke-linejoin="round"/>
</g>
<defs>
<clipPath id="clip0_216_59152">
<rect width="26.2047" height="18" fill="white" transform="translate(0.5)"/>
</clipPath>
</defs>
</svg>
